# xmcd
#
# Track frame offsets:
#	183
#	14920
#	33350
#	47468
#	60173
#	72283
#	96270
#	108538
#	126143
#	141025
#	156538
#	175430
#	196388
#	211125
#	227983
#
# Disc length: 3291 seconds
#
# Revision: 1
# Processed by: cddbd v1.4PL0 Copyright (c) Steve Scherf et al.
# Submitted via: audiograbber 1.81.03
#
DISCID=d80cd90f
DTITLE=Various Artist - Cookin' With The Blues 2 (BEECD 11)
DYEAR=1994
DGENRE=Blues
TTITLE0=Billy Boy Arnorld and Tony McPhee - Don't Stay Out All Night
TTITLE1=Byther Smith -  Com Onin This House
TTITLE2=Buddy Guy - Sit And Cry
TTITLE3=Paul Delay Band - Mine All Mine
TTITLE4=Ike Turner -  Prancin'
TTITLE5=Jimmy Johnson - When My First Wife Quit Me
TTITLE6=John Lee Hooker -  House Rent Boogie
TTITLE7=Carey Bell And Willie Williams - Showing Off My Car
TTITLE8=Tommy Tucker - Drunk
TTITLE9=Bo Diddley - Road Runner
TTITLE10=Clarance Edwards - Still A Fool
TTITLE11=Brian Knight With Lawrence Scott and Mickey Moody - Take This Hammer
TTITLE12=Big Walter 'Shaky' Horton - Easy
TTITLE13=Peter Green and Mick Green - Chinese White Boy
TTITLE14=Isaac Scott - Feast Goin' On
EXTD=
EXTT0=
EXTT1=
EXTT2=
EXTT3=
EXTT4=
EXTT5=
EXTT6=
EXTT7=
EXTT8=
EXTT9=
EXTT10=
EXTT11=
EXTT12=
EXTT13=
EXTT14=
PLAYORDER=
